<svg width="10" height="10" viewBox="0 0 10 10" fill="none" xmlns="http://www.w3.org/2000/svg">
<path d="M2.5 1C2.5 0.447715 2.94772 0 3.5 0H6.5C7.05228 0 7.5 0.447715 7.5 1V2H8.49484C8.49793 1.99997 8.50103 1.99997 8.50413 2H9.5C9.77614 2 10 2.22386 10 2.5C10 2.77614 9.77614 3 9.5 3H8.96556L8.5319 9.07125C8.49452 9.59455 8.05908 10 7.53444 10H2.46556C1.94092 10 1.50548 9.59455 1.4681 9.07125L1.03444 3H0.5C0.223858 3 0 2.77614 0 2.5C0 2.22386 0.223858 2 0.5 2H1.49587C1.49897 1.99997 1.50207 1.99997 1.50516 2H2.5V1ZM3.5 2H6.5V1H3.5V2ZM2.03699 3L2.46556 9H7.53444L7.96301 3H2.03699Z" fill="#2F80ED"/>
</svg>
